<?xml version="1.0" standalone="no"?><!DOCTYPE svg PUBLIC "-//W3C//DTD SVG 1.1//EN" "http://www.w3.org/Graphics/SVG/1.1/DTD/svg11.dtd"><svg t="1565937016525" class="icon" viewBox="0 0 1098 1024" version="1.1" xmlns="http://www.w3.org/2000/svg" p-id="4615" data-darkreader-inline-fill="" xmlns:xlink="http://www.w3.org/1999/xlink" width="214.453125" height="200"><defs><style type="text/css">* {  }
</style></defs><path d="M797.599549 704.324873c-12.128596 30.321489-66.4185 57.755217-90.386915 59.199098-23.968415 1.155104-24.834743 18.770446-155.361534-38.984772-130.526791-57.466441-209.073886-197.522843-215.42696-206.474901-6.064298-9.240835-50.535815-73.349126-48.225606-138.034969 2.598985-64.685843 37.540891-95.296108 49.958262-107.71348A49.669487 49.669487 0 0 1 373.387479 257.010716h24.545967c7.508178 0.288776 19.059222-1.44388 28.877609 25.12352 9.818387 26.856176 33.498026 92.408347 36.674563 99.050197 2.887761 6.64185 4.909193 14.438804 0 23.102087-4.620417 8.663283-6.930626 13.861252-13.572476 21.36943-6.930626 7.508178-14.438804 16.749013-20.503103 22.235759-6.930626 6.353074-13.861252 13.2837-6.641849 26.5674 6.930626 13.572476 31.765369 57.755217 69.30626 93.852228 47.93683 46.49295 89.520587 62.086858 102.226734 69.30626 12.706148 6.930626 20.214326 6.064298 28.300057-2.310208 8.08573-8.663283 34.075578-37.252115 43.316413-49.958263 9.240835-12.994924 17.904117-10.395939 29.45516-5.775522 11.83982 4.909193 75.081782 39.273548 87.499154 46.204174 12.994924 7.219402 21.36943 10.684715 24.545968 16.460237 2.887761 5.775522 2.021433 31.765369-9.818387 62.086858zM548.097011 0C244.015792 0 1.44388 227.555556 1.44388 508.245911c0 88.365482 25.123519 172.110547 66.4185 246.326001 6.930626 11.551043 9.240835 25.412296 4.620418 39.562324l-71.038918 197.234066c-6.930626 18.770446 11.551043 34.65313 29.743937 30.321489l196.656515-76.814438c11.551043-4.620417 25.123519-2.310209 38.984771 4.620417 82.301184 46.49295 180.77383 74.50423 285.888325 74.50423 299.749577-2.310209 544.342922-229.865764 544.342922-511.133672C1094.750141 227.844332 850.156796 0 548.674563 0z" p-id="4616"></path></svg>