<?xml version="1.0" standalone="no"?><!DOCTYPE svg PUBLIC "-//W3C//DTD SVG 1.1//EN" "http://www.w3.org/Graphics/SVG/1.1/DTD/svg11.dtd"><svg t="1566024210291" class="icon" viewBox="0 0 1024 1024" version="1.1" xmlns="http://www.w3.org/2000/svg" p-id="2446" data-darkreader-inline-fill="" xmlns:xlink="http://www.w3.org/1999/xlink" width="200" height="200"><defs><style type="text/css">* {  }
</style></defs><path d="M512 0C229.180952 0 0 229.180952 0 511.8194c0 216.900176 135.088536 402.014815 325.440564 476.783069-4.514991-40.454321-8.488183-102.5806 1.625397-146.827513 9.210582-39.912522 60.139683-254.464903 60.139683-254.464903s-15.35097-30.70194-15.35097-75.851852c0-71.156261 41.357319-124.433157 92.647619-124.433157 43.705115 0 64.835273 32.688536 64.835273 72.239859 0 43.885714-27.992945 109.623986-42.260317 170.486067-12.100176 50.929101 25.64515 92.467019 75.851852 92.467019 91.022222 0 160.914286-95.898413 160.914285-234.418342 0-122.446561-88.132628-208.411993-213.829982-208.411993-145.743915 0-231.348148 109.262787-231.348148 222.137566 0 44.066314 16.976367 91.022222 38.106525 116.847972 4.153792 5.05679 4.695591 9.571781 3.611993 14.628572-3.973192 16.253968-12.461376 50.929101-14.086772 57.972486-2.167196 9.391182-7.404586 11.377778-17.156967 6.862787-63.932275-29.618342-104.025397-123.168959-104.025397-198.298413 0-161.456085 117.389771-309.728395 338.26314-309.728395 177.710053 0 315.507584 126.600353 315.507584 295.641623 0 176.445855-111.249383 318.397178-265.662082 318.397178-51.832099 0-100.774603-26.909347-117.38977-58.694885 0 0-25.64515 97.704409-31.966138 121.724162-11.558377 44.608113-42.802116 100.232804-63.571076 134.185538 48.039506 14.809171 98.788007 22.936155 151.523104 22.936155 282.819048 0 512-229.180952 512-511.8194C1024 229.180952 794.819048 0 512 0z" p-id="2447"></path></svg>