<?xml version="1.0" standalone="no"?><!DOCTYPE svg PUBLIC "-//W3C//DTD SVG 1.1//EN" "http://www.w3.org/Graphics/SVG/1.1/DTD/svg11.dtd"><svg t="1565946789620" class="icon" viewBox="0 0 1024 1024" version="1.1" xmlns="http://www.w3.org/2000/svg" p-id="10481" data-darkreader-inline-fill="" xmlns:xlink="http://www.w3.org/1999/xlink" width="200" height="200"><defs><style type="text/css">* {  }
</style></defs><path d="M71.087445 590.624085c-36.118528 90.016427-42.131456 175.8208-13.029376 191.767894 20.126379 11.067392 51.478528-14.232235 81.001131-60.287659 11.691349 50.438144 40.584533 95.698944 81.836715 132.274859-43.215531 16.827733-71.520256 44.344661-71.520256 75.446954 0 51.228672 76.446379 92.609195 170.72401 92.609195 85.05344 0 155.530581-33.569451 168.559958-77.829461h20.253354c13.277867 44.260011 83.588437 77.829461 168.762027 77.829461 94.407339 0 170.732203-41.380523 170.732203-92.609195 0-31.102293-28.269227-58.410325-71.566678-75.446954 41.125205-36.575915 70.189056-81.835349 81.79712-132.274859 29.517141 46.055424 60.710912 71.356416 80.91375 60.287659 29.274112-15.947093 23.425024-101.751467-13.067606-191.767894-28.516352-70.483968-67.137536-122.509995-96.571392-134.156288a141.429419 141.429419 0 0 0-18.915328-86.639957 79.080107 79.080107 0 0 0-7.472469-39.291563C796.086272 147.077803 682.605227 1.231531 498.845013 1.231531c-183.715157 0-297.324544 145.883136-304.751957 329.306112a81.712469 81.712469 0 0 0-7.729152 34.577066c0 1.624747 0 3.171669 0.210261 4.841472a142.753792 142.753792 0 0 0-19.456 73.024854c0 4.592981 0.247125 9.187328 0.540672 13.653333-29.312341 11.564373-68.098731 63.505749-96.571392 133.989717z m0 0" p-id="10482"></path></svg>