<?xml version="1.0" standalone="no"?><!DOCTYPE svg PUBLIC "-//W3C//DTD SVG 1.1//EN" "http://www.w3.org/Graphics/SVG/1.1/DTD/svg11.dtd"><svg t="1565936863365" class="icon" viewBox="0 0 1024 1024" version="1.1" xmlns="http://www.w3.org/2000/svg" p-id="3293" data-darkreader-inline-fill="" xmlns:xlink="http://www.w3.org/1999/xlink" width="200" height="200"><defs><style type="text/css">* {  }
</style></defs><path d="M972.992 617.024c19.456 37.616 29.184 77.808 29.184 120.592 0 75.216-26.592 139.072-79.744 191.6C869.248 981.728 805.696 1008 731.792 1008c-46.688 0-89.472-10.368-128.368-31.12-28.528 5.184-57.056 7.776-85.6 7.776-129.664 0-240.224-45.696-331.648-137.12s-137.12-201.312-137.12-329.696c0-32.384 3.216-64.192 9.712-95.312-24.624-41.488-36.96-86.848-36.96-136.16 0-75.184 26.56-139.072 79.744-191.6C154.752 42.256 218.288 16 292.208 16c53.152 0 101.792 13.616 145.872 40.848 25.936-5.152 52.512-7.776 79.744-7.776 128.384 0 238.288 45.696 329.696 137.12s137.12 202 137.12 331.648C984.656 551.584 980.768 584.608 972.992 617.024zM757.072 740.544c22.048-30.464 33.072-65.152 33.072-104.064 0-32.416-6.48-59.968-19.456-82.672-12.976-22.656-30.48-41.136-52.512-55.424-22.048-14.272-48.64-26.56-79.744-36.96-31.12-9.056-65.504-18.16-103.088-27.232-31.12-6.48-52.848-11.664-65.168-15.568-12.336-3.888-24.992-8.432-37.92-13.616-11.664-6.48-20.752-13.616-27.232-21.392-6.512-7.776-9.712-16.832-9.712-27.232 0-18.16 9.712-33.056 29.168-44.736 20.72-14.272 47.328-21.392 79.744-21.392 36.32 0 62.896 6.512 79.744 19.456 15.568 11.664 29.168 28.528 40.848 50.576 10.368 18.176 20.112 30.48 29.184 36.96 9.056 9.072 22.032 13.616 38.896 13.616 19.456 0 35.664-6.8 48.624-20.416s19.456-28.848 19.456-45.712c0-16.832-4.864-34.336-14.576-52.512-9.728-18.16-24.976-35.312-45.712-51.552-20.752-16.208-46.672-28.848-77.792-37.936-31.12-9.04-67.44-13.616-108.944-13.616-51.856 0-97.248 7.12-136.16 21.392-40.208 14.288-70.704 35.008-91.424 62.24-20.752 27.232-31.104 59.024-31.104 95.312 0 36.32 9.712 67.424 29.168 93.36 19.456 24.64 46 44.08 79.744 58.352 33.712 14.304 74.56 26.576 122.528 36.96 36.32 7.776 65.488 14.928 87.536 21.408 19.456 6.464 35.664 15.552 48.64 27.216 11.664 11.664 17.504 26.592 17.504 44.752 0 23.328-11.008 42.784-33.056 58.336-24.64 15.568-56.416 23.344-95.312 23.344-28.528 0-51.248-3.888-68.08-11.664-16.864-7.776-29.856-17.504-38.912-29.168-9.072-12.976-18.192-29.184-27.232-48.624-6.496-16.864-15.568-29.824-27.232-38.912-10.384-10.368-24.016-15.568-40.848-15.568-19.456 0-35.68 6.16-48.624 18.48-12.976 12.32-19.456 26.912-19.456 43.76 0 27.216 9.728 55.744 29.168 85.584 20.736 28.528 46.688 51.216 77.808 68.08 44.064 23.344 99.84 35.008 167.28 35.008 55.744 0 104.384-8.432 145.872-25.296C703.264 795.344 735.024 771.008 757.072 740.544z" p-id="3294"></path></svg>