<?xml version="1.0" standalone="no"?><!DOCTYPE svg PUBLIC "-//W3C//DTD SVG 1.1//EN" "http://www.w3.org/Graphics/SVG/1.1/DTD/svg11.dtd"><svg t="1566024385353" class="icon" viewBox="0 0 1024 1024" version="1.1" xmlns="http://www.w3.org/2000/svg" p-id="5666" data-darkreader-inline-fill="" xmlns:xlink="http://www.w3.org/1999/xlink" width="200" height="200"><defs><style type="text/css">* {  }
</style></defs><path d="M817.015012 1024H206.536252c-97.03948 0-175.72014-85.429285-175.72014-190.752624v-183.748126c0-105.323338 78.68066-183.524238 175.72014-183.524238h610.47876c97.03948 0 175.688156 79.64018 175.688156 184.963519v182.308845c0 105.25937-78.68066 190.752624-175.688156 190.752624zM334.728156 556.457771H166.46029v52.101949h56.73963v306.086957h54.82059v-306.086957h56.73963v-52.101949z m145.335332 107.018491h-48.647676v200.731634a69.437281 69.437281 0 0 1-14.872564 14.04098 26.450775 26.450775 0 0 1-13.657171 5.661169l-1.183408 0.063968a11.482259 11.482259 0 0 1-8.923539-4.253873 23.604198 23.604198 0 0 1-3.102448-11.738131l0.063968-1.887056v-202.650675H341.188926v220.945527a60.513743 60.513743 0 0 0 8.69965 35.694153 29.297351 29.297351 0 0 0 23.412294 11.610195l1.951024-0.063968c10.426787-0.223888 20.149925-3.326337 28.401799-8.571714 10.746627-6.492754 20.021989-14.616692 27.730135-24.083958l0.15992 28.721639h48.647676v-264.21989z m203.866067 55.812094a83.542229 83.542229 0 0 0-12.377811-49.767117c-7.90005-10.906547-19.670165-9.211394-35.086457-9.211394-12.953523 0-25.363318 2.302849-36.845577 6.524738a81.71914 81.71914 0 0 0-19.990005 17.943028l-0.127936-122.466766h-49.15942v365.353323h49.191404v-20.149925a63.968016 63.968016 0 0 0 20.469765 17.71914c11.578211 3.806097 24.531734 5.917041 37.997002 5.917042h1.535232c14.072964-2.078961 25.93903-10.394803 32.87956-21.973014a69.629185 69.629185 0 0 0 11.546227-43.466267v-146.486756z m176.967516 116.101949h-50.054972v12.025987a61.185407 61.185407 0 0 1-4.989505 30.512743 19.766117 19.766117 0 0 1-16.887557 6.46077 17.623188 17.623188 0 0 1-16.375812-7.932034 60.449775 60.449775 0 0 1-4.765617-29.233383v-49.575213h93.041479v-67.390304a83.446277 83.446277 0 0 0-18.03898-57.795103 65.151424 65.151424 0 0 0-47.08046-19.990005c-1.471264 0-2.910545 0.063968-4.349825 0.127936a70.012994 70.012994 0 0 0-53.061469 21.557222 77.593203 77.593203 0 0 0-20.725637 56.195902v118.564717a88.33983 88.33983 0 0 0 18.934532 60.097951 64.15992 64.15992 0 0 0 51.494253 21.525238 69.213393 69.213393 0 0 0 54.436782-20.405797 88.755622 88.755622 0 0 0 18.35882-61.569216l0.031984-13.241379z m-93.041479-105.579211a41.771114 41.771114 0 0 1 5.149425-23.892054 18.614693 18.614693 0 0 1 16.631685-7.100449c0.415792-0.063968 0.95952-0.063968 1.535232-0.063968 5.949025 0 11.226387 2.878561 14.52074 7.324338a40.93953 40.93953 0 0 1 5.149425 23.860069v26.546727h-43.018491v-26.706647z m-165.037481 159.952024a26.322839 26.322839 0 0 1-11.866067-2.910544 43.210395 43.210395 0 0 1-11.354323-9.275363l-0.031984-164.749625c2.814593-3.230385 6.108946-5.917041 9.819091-7.996002a22.196902 22.196902 0 0 1 10.522738-2.622688l1.471265-0.031984c10.010995 0 19.446277 2.526737 27.666167 7.004497a34.670665 34.670665 0 0 1 4.797601 20.277861v136.347826a30.8006 30.8006 0 0 1-4.285857 18.358821 58.466767 58.466767 0 0 1-24.979511 5.533233l-1.855072-0.031984z m118.564718-523.482258c-8.635682 10.234883-18.838581 18.838581-30.32084 25.491254a65.247376 65.247376 0 0 1-31.6002 9.147426c-0.735632 0.063968-1.503248 0.063968-2.302848 0.063968-10.458771 0-19.766117-4.861569-25.811095-12.409795a59.810095 59.810095 0 0 1-9.435282-37.197401V120.515742h53.605197v211.830085a23.028486 23.028486 0 0 0 3.550225 14.232884 12.601699 12.601699 0 0 0 9.595202 4.381809l1.247377-0.063968a30.192904 30.192904 0 0 0 15.032483-5.853074c6.268866-4.157921 11.706147-9.051474 16.311845-14.680659l0.095952-209.911045h53.701149v276.341829h-53.701149v-30.544727z m-219.954023 37.613193a76.505747 76.505747 0 0 1-56.387806-20.885557 74.938531 74.938531 0 0 1-21.077462-56.163918V183.684158a64.351824 64.351824 0 0 1 21.653174-51.110445 84.853573 84.853573 0 0 1 58.49875-18.998501 76.473763 76.473763 0 0 1 54.468766 20.053973c13.049475 12.409795 21.173413 29.969015 21.173413 49.415293l-0.031984 2.366816v142.648676a73.81909 73.81909 0 0 1-20.821589 55.652174 79.032484 79.032484 0 0 1-57.69915 20.117941z m23.604197-222.288856v-0.543728a18.422789 18.422789 0 0 0-6.524737-14.104947 25.61919 25.61919 0 0 0-15.992004-5.597202l-1.311344 0.031984-0.927537-0.031984a22.804598 22.804598 0 0 0-15.000499 5.597202 19.030485 19.030485 0 0 0-6.076962 13.977011v151.188406a25.011494 25.011494 0 0 0 5.725137 17.623188 20.789605 20.789605 0 0 0 14.872564 6.204898l1.535233-0.063968a22.068966 22.068966 0 0 0 23.700149-23.892054V181.509245z m-175.784107 215.22039H288.767136v-170.474762L216.803118 0.127936h60.865568l39.244377 149.781109h3.806097l37.389306-149.781109h61.377311L349.216912 219.346327v177.47926z" p-id="5667"></path></svg>