<?xml version="1.0" standalone="no"?><!DOCTYPE svg PUBLIC "-//W3C//DTD SVG 1.1//EN" "http://www.w3.org/Graphics/SVG/1.1/DTD/svg11.dtd"><svg t="1565937088419" class="icon" viewBox="0 0 1024 1024" version="1.1" xmlns="http://www.w3.org/2000/svg" p-id="5373" data-darkreader-inline-fill="" xmlns:xlink="http://www.w3.org/1999/xlink" width="200" height="200"><defs><style type="text/css">* {  }
</style></defs><path d="M512 0C229.229 0 0 229.229 0 512s229.229 512 512 512 512-229.229 512-512S794.771 0 512 0z m0 950.857c-242.357 0-438.857-196.5-438.857-438.857S269.643 73.143 512 73.143 950.857 269.643 950.857 512 754.357 950.857 512 950.857z" p-id="5374"></path><path d="M629.757 461.329v8.285q17.929-23.743 39.357-34.885T718.23 423.6q26.985 0 48.271 11.743a74.857 74.857 0 0 1 31.743 33.286 78.214 78.214 0 0 1 8.743 26.985A282.3 282.3 0 0 1 809 532.586V659.6c0 13.686-3.143 24-9.4 31.014a33.686 33.686 0 0 1-49.114-0.257Q741 679.6 740.97 659.643V545.87q0-33.742-9.357-51.642t-37.328-17.886a55.514 55.514 0 0 0-33.286 10.9 62.2 62.2 0 0 0-21.943 29.871Q634 532.371 634.043 574.1v85.5q0 20.743-9.657 31.129a32.4 32.4 0 0 1-24.857 10.385 30.929 30.929 0 0 1-24.286-10.757q-9.5-10.757-9.5-30.714V462.37q0-19.514 8.571-29.142c5.715-6.4 13.429-9.629 23.229-9.629a31.571 31.571 0 0 1 16.271 4.286 30.386 30.386 0 0 1 11.629 12.757 44.757 44.757 0 0 1 4.314 20.686z m-133.343 116.8a33.629 33.629 0 0 1 29.172 50.342c-23.6 41.529-65.715 73.086-136.429 73.086-104.586 0-167.071-74.657-167.071-191.957 0-105.757 60.771-196.243 171.771-196.243 76.914 0 117.972 38.286 137.229 77.286 10.943 22.186-5.557 48.157-30.3 48.157h-2.443a33.529 33.529 0 0 1-30.614-20.329c-11.7-26.642-34.2-46.4-75.272-46.4-61.957 0-97.043 53.286-97.043 135.043 0 83.329 34.5 136.029 95.057 136.029 37 0 60.843-16.786 75.815-46.3a33.857 33.857 0 0 1 30.128-18.714z" p-id="5375"></path></svg>