<?xml version="1.0" standalone="no"?><!DOCTYPE svg PUBLIC "-//W3C//DTD SVG 1.1//EN" "http://www.w3.org/Graphics/SVG/1.1/DTD/svg11.dtd"><svg t="1565946705475" class="icon" viewBox="0 0 1024 1024" version="1.1" xmlns="http://www.w3.org/2000/svg" p-id="9747" data-darkreader-inline-fill="" xmlns:xlink="http://www.w3.org/1999/xlink" width="200" height="200"><defs><style type="text/css">* {  }
</style></defs><path d="M303.00672 96.0512C5.6064 149.1712-93.53216 485.18144 143.03232 638.976c12.96896 8.34048 12.96896 7.41376-6.48704 65.47456l-16.67584 49.7152 59.91424-32.11264 59.91424-32.11776 31.80544 7.72096c33.3568 8.33536 75.97568 14.20288 104.38144 14.20288h16.98816l-5.86752-22.54336c-46.63296-171.70944 114.57536-341.87264 324.27008-341.87264h28.41088l-5.86752-20.38272c-46.01344-160.90112-240.26112-264.98048-430.81216-231.00928z m-25.94816 150.40512c31.50336 21.31456 33.3568 67.32288 3.08736 87.09632-49.1008 32.11776-106.54208-24.40192-73.50272-72.576 14.52544-21.62176 49.41824-28.72832 70.41536-14.52032z m253.24544 0c51.88608 34.89792 12.97408 115.50208-45.09184 93.26592-41.99936-16.06144-46.94016-73.80992-7.71584-94.49984 15.4368-8.34048 39.5264-7.72608 52.80768 1.23392z m114.57536 127.23712c-147.30752 26.86976-249.53344 138.66496-243.66592 267.136 7.72096 172.02176 209.38752 290.6112 403.0208 237.4912l22.85568-6.17984 48.1792 25.94816c26.55744 14.51008 48.7936 25.0112 49.41312 23.77728 0.61952-1.54624-4.62848-20.08064-11.42784-41.37984-15.44192-47.5648-15.74912-44.16512 4.94592-58.98752 232.85248-167.08096 28.41088-502.46656-273.32096-447.80544z m-5.8624 138.66496c12.96384 8.64256 19.75808 30.26944 14.20288 46.01344-11.73504 33.65888-62.07488 36.13184-75.66336 3.70688-15.44192-37.36576 27.17696-71.95648 61.46048-49.72032z m206.29504 3.70688c20.38272 19.456 16.98304 52.49536-6.79424 64.84992-36.43904 18.52928-74.73664-18.52416-55.90016-54.03648 12.35456-22.8608 44.16512-28.416 62.6944-10.81344z" p-id="9748"></path></svg>