<?xml version="1.0" standalone="no"?><!DOCTYPE svg PUBLIC "-//W3C//DTD SVG 1.1//EN" "http://www.w3.org/Graphics/SVG/1.1/DTD/svg11.dtd"><svg t="1566024290702" class="icon" viewBox="0 0 1264 1024" version="1.1" xmlns="http://www.w3.org/2000/svg" p-id="4045" data-darkreader-inline-fill="" xmlns:xlink="http://www.w3.org/1999/xlink" width="246.875" height="200"><defs><style type="text/css">* {  }
</style></defs><path d="M1229.86231 18.044s-117.853 63.135-164.152 67.344C960.48431-78.764 560.62731-7.21 627.97031 308.466c-349.348 4.21-538.754-260.96-538.754-260.96s-117.853 189.407 75.762 345.14c-37.881 4.21-109.435-21.044-109.435-21.044S26.08131 535.753 253.36831 615.725c-21.045 29.463-113.643 8.418-113.643 8.418S164.97931 767.25 371.22031 805.13C228.11431 935.61-16.00869 897.729 0.82731 910.356c206.242 189.406 1119.6 231.497 1128.018-643.98 50.508-16.836 134.689-143.107 134.689-143.107s-130.48 37.881-138.898 33.672c101.017-58.926 105.226-138.897 105.226-138.897" p-id="4046"></path></svg>