<?xml version="1.0" standalone="no"?><!DOCTYPE svg PUBLIC "-//W3C//DTD SVG 1.1//EN" "http://www.w3.org/Graphics/SVG/1.1/DTD/svg11.dtd"><svg t="1566023889900" class="icon" viewBox="0 0 1024 1024" version="1.1" xmlns="http://www.w3.org/2000/svg" p-id="1707" data-darkreader-inline-fill="" xmlns:xlink="http://www.w3.org/1999/xlink" width="200" height="200"><defs><style type="text/css">* {  }
</style></defs><path d="M938.688 0H85.312C38.208 0 0 38.144 0 85.12v853.76C0 985.792 38.208 1024 85.312 1024h853.376c47.104 0 85.312-38.144 85.312-85.12V85.12C1024 38.208 985.792 0 938.688 0z m-635.52 844.416H151.616v-453.76h151.552v453.76zM227.392 335.744a85.952 85.952 0 0 1 0-171.712c47.488 0 86.016 38.4 86.016 85.824 0 47.36-38.528 85.888-86.016 85.888z m645.504 508.672h-152.064l-3.52-269.568s3.52-71.872-74.688-70.976c-78.208 0.896-89.472 71.04-89.472 71.04v269.44H400.064V390.784h146.816v62.592s6.016-20.416 39.808-44.416c33.728-23.936 89.728-29.248 113.792-28.352 24 0.896 56.832-3.328 112 34.56 58.88 40.512 60.416 146.432 60.416 146.432v282.88z" p-id="1708"></path></svg>